<svg version="1.1" xmlns="http://www.w3.org/2000/svg" viewBox="0 0 75.71129521847877 60.77431702222614" width="75.71129521847877" height="60.77431702222614"><!-- svg-source:excalidraw --><metadata></metadata><defs><style class="style-fonts">
      </style></defs><rect x="0" y="0" width="75.71129521847877" height="60.77431702222614" fill="transparent"></rect><g transform="translate(22.74197406944569 31.342806566321514) rotate(0 -0.15927467586806188 9.715755227952314)" stroke="none"><path fill="#d3d3d3" d="M -0.7,-4.28 Q -0.7,-4.28 -0.69,-0.06 -0.68,-0.13 -0.66,-0.20 -0.64,-0.26 -0.61,-0.32 -0.58,-0.38 -0.53,-0.44 -0.49,-0.49 -0.44,-0.53 -0.38,-0.58 -0.32,-0.61 -0.26,-0.64 -0.20,-0.66 -0.13,-0.68 -0.06,-0.69 8.57,-0.7 0.06,-0.69 0.13,-0.68 0.20,-0.66 0.26,-0.64 0.32,-0.61 0.38,-0.58 0.44,-0.53 0.49,-0.49 0.53,-0.44 0.58,-0.38 0.61,-0.32 0.64,-0.26 0.66,-0.20 0.68,-0.13 0.69,-0.06 0.7,4.28 0.7,0.12 0.7,0.25 0.7,0.40 0.7,0.56 0.7,1.10 0.7,1.64 0.7,2.25 0.7,2.87 0.7,3.89 0.7,4.90 0.7,6.00 0.7,7.09 0.7,8.59 0.7,10.08 0.69,11.29 0.69,12.50 0.57,13.51 0.44,14.52 0.41,15.59 0.39,16.66 0.38,17.26 0.38,17.86 0.38,18.23 0.38,18.60 0.38,18.93 0.38,19.26 0.27,19.51 0.17,19.76 -0.07,19.86 -0.31,19.96 -0.56,19.86 -0.81,19.76 -0.91,19.51 -1.01,19.26 -1.01,19.13 -1.00,19.00 -0.98,18.94 -0.96,18.87 -0.93,18.81 -0.90,18.75 -0.85,18.70 -0.81,18.64 -0.76,18.60 -0.70,18.56 -0.64,18.52 -0.58,18.49 -0.52,18.47 -0.45,18.45 -0.38,18.45 -0.31,18.44 -0.25,18.45 -0.18,18.45 -0.11,18.47 -0.05,18.49 0.00,18.52 0.06,18.56 0.12,18.60 0.17,18.64 0.21,18.70 0.26,18.75 0.29,18.81 0.32,18.87 0.34,18.94 0.36,19.00 0.37,19.07 0.38,19.14 0.37,19.21 0.36,19.27 0.34,19.34 0.32,19.41 0.29,19.47 0.26,19.53 0.22,19.58 0.17,19.63 0.12,19.68 0.07,19.72 0.01,19.75 -0.05,19.79 -0.11,19.81 -0.18,19.83 -0.24,19.83 -0.31,19.84 -0.38,19.83 -0.45,19.83 -0.52,19.81 -0.58,19.79 -0.64,19.75 -0.70,19.72 -0.76,19.68 -0.81,19.63 -0.85,19.58 -0.90,19.53 -0.93,19.47 -0.96,19.41 -0.98,19.34 -1.00,19.28 -1.01,19.21 -1.01,19.14 -1.01,19.07 -1.00,19.00 -0.98,18.94 -0.96,18.87 -0.93,18.81 -0.90,18.75 -0.85,18.70 -0.81,18.64 -0.76,18.60 -0.70,18.56 -0.64,18.52 -0.58,18.49 -0.52,18.47 -0.45,18.45 -0.38,18.45 -0.31,18.44 -0.25,18.45 -0.18,18.45 -0.11,18.47 -0.05,18.49 0.00,18.52 0.06,18.56 0.12,18.60 0.17,18.64 0.21,18.70 0.26,18.75 0.29,18.81 0.32,18.87 0.34,18.94 0.36,19.00 0.37,19.07 0.38,19.14 0.38,19.20 0.38,19.26 0.03,18.91 -0.31,18.56 -0.07,19.16 0.17,19.76 -0.07,19.86 -0.31,19.96 -0.56,19.86 -0.81,19.76 -0.91,19.51 -1.01,19.26 -0.66,18.91 -0.31,18.56 -0.66,18.91 -1.01,19.26 -1.01,18.93 -1.01,18.60 -1.01,18.22 -1.01,17.85 -1.01,17.24 -1.00,16.64 -0.97,15.53 -0.95,14.41 -0.82,13.41 -0.69,12.42 -0.69,11.25 -0.7,10.08 -0.7,8.59 -0.7,7.09 -0.7,6.00 -0.7,4.90 -0.7,3.89 -0.7,2.87 -0.7,2.25 -0.7,1.64 -0.7,1.10 -0.7,0.56 -0.7,0.40 -0.7,0.25 -0.7,0.12 -0.7,-4.28 -0.7,-4.28 L -0.7,-4.28 Z"></path></g><g transform="translate(22.74197406944569 32.29845462152994) rotate(0 -6.3709870347228446 7.804459117535458)" stroke="none"><path fill="#d3d3d3" d="M 4.28,-0.7 Q 4.28,-0.7 0.06,-0.69 0.13,-0.68 0.20,-0.66 0.26,-0.64 0.32,-0.61 0.38,-0.58 0.44,-0.53 0.49,-0.49 0.53,-0.44 0.58,-0.38 0.61,-0.32 0.64,-0.26 0.66,-0.20 0.68,-0.13 0.69,-0.06 0.7,8.57 0.69,0.06 0.68,0.13 0.66,0.20 0.64,0.26 0.61,0.32 0.58,0.38 0.53,0.44 0.49,0.49 0.44,0.53 0.38,0.58 0.32,0.61 0.26,0.64 0.20,0.66 0.13,0.68 0.06,0.69 -4.28,0.7 -0.12,0.7 -0.25,0.7 -0.40,0.7 -0.56,0.7 -0.97,0.7 -1.38,0.7 -1.85,0.7 -2.31,0.7 -2.91,0.7 -3.52,0.7 -3.97,0.69 -4.43,0.69 -4.83,0.79 -5.23,0.90 -5.89,1.27 -6.55,1.64 -7.04,2.07 -7.54,2.51 -8.00,2.96 -8.46,3.40 -8.80,3.86 -9.13,4.32 -9.59,4.92 -10.04,5.53 -10.49,6.12 -10.94,6.72 -11.15,7.22 -11.37,7.71 -11.65,8.14 -11.92,8.57 -11.97,9.18 -12.01,9.79 -11.92,10.32 -11.84,10.85 -11.51,11.25 -11.19,11.65 -10.51,12.10 -9.84,12.55 -8.96,13.14 -8.09,13.73 -7.21,14.08 -6.33,14.42 -5.30,14.62 -4.28,14.81 -3.33,14.85 -2.38,14.88 -1.74,14.90 -1.09,14.92 -1.03,14.94 -0.96,14.96 -0.90,14.99 -0.84,15.02 -0.79,15.07 -0.74,15.11 -0.70,15.17 -0.65,15.22 -0.62,15.28 -0.59,15.34 -0.57,15.41 -0.55,15.47 -0.55,15.54 -0.54,15.61 -0.55,15.68 -0.56,15.75 -0.58,15.81 -0.60,15.88 -0.63,15.94 -0.66,16.00 -0.71,16.05 -0.75,16.10 -0.81,16.14 -0.86,16.19 -0.92,16.22 -0.98,16.25 -1.05,16.27 -1.11,16.29 -1.18,16.29 -1.25,16.30 -1.32,16.29 -1.39,16.28 -1.45,16.26 -1.52,16.24 -1.58,16.21 -1.64,16.18 -1.69,16.13 -1.74,16.09 -1.78,16.03 -1.83,15.98 -1.86,15.92 -1.89,15.86 -1.91,15.79 -1.93,15.73 -1.93,15.66 -1.94,15.59 -1.93,15.52 -1.92,15.45 -1.90,15.39 -1.88,15.32 -1.85,15.26 -1.82,15.20 -1.77,15.15 -1.73,15.10 -1.67,15.06 -1.62,15.01 -1.56,14.98 -1.50,14.95 -1.43,14.93 -1.37,14.91 -1.30,14.91 -1.23,14.90 -1.16,14.91 -1.09,14.92 -1.03,14.94 -0.96,14.96 -0.90,14.99 -0.84,15.02 -0.79,15.07 -0.74,15.11 -0.70,15.17 -0.65,15.22 -0.62,15.28 -0.59,15.34 -0.57,15.41 -0.55,15.47 -0.55,15.54 -0.54,15.61 -0.55,15.68 -0.56,15.75 -0.58,15.81 -0.60,15.88 -0.63,15.94 -0.66,16.00 -0.71,16.05 -0.75,16.10 -0.81,16.14 -0.86,16.19 -0.92,16.22 -0.98,16.25 -1.05,16.27 -1.11,16.29 -1.18,16.29 -1.25,16.30 -1.83,16.29 -2.42,16.28 -3.43,16.24 -4.44,16.20 -5.58,15.98 -6.72,15.77 -7.73,15.37 -8.74,14.96 -9.68,14.34 -10.62,13.71 -11.38,13.19 -12.14,12.67 -12.63,12.05 -13.11,11.42 -13.26,10.64 -13.41,9.85 -13.33,8.99 -13.25,8.14 -12.93,7.60 -12.61,7.06 -12.38,6.54 -12.15,6.02 -11.65,5.35 -11.16,4.69 -10.71,4.08 -10.26,3.48 -9.89,2.98 -9.52,2.48 -9.00,1.98 -8.49,1.48 -7.92,0.99 -7.36,0.49 -6.55,0.05 -5.75,-0.39 -5.18,-0.54 -4.61,-0.69 -4.06,-0.69 -3.52,-0.7 -2.91,-0.7 -2.31,-0.7 -1.85,-0.7 -1.38,-0.7 -0.97,-0.7 -0.56,-0.7 -0.40,-0.7 -0.25,-0.7 -0.12,-0.7 4.28,-0.7 4.28,-0.7 L 4.28,-0.7 Z"></path></g><g transform="translate(43.44768193229493 33.572652028474494) rotate(0 0.31854935173612375 7.0080857381951205)" stroke="none"><path fill="#d3d3d3" d="M -0.7,-4.28 Q -0.7,-4.28 -0.69,-0.06 -0.68,-0.13 -0.66,-0.20 -0.64,-0.26 -0.61,-0.32 -0.58,-0.38 -0.53,-0.44 -0.49,-0.49 -0.44,-0.53 -0.38,-0.58 -0.32,-0.61 -0.26,-0.64 -0.20,-0.66 -0.13,-0.68 -0.06,-0.69 8.57,-0.7 0.06,-0.69 0.13,-0.68 0.20,-0.66 0.26,-0.64 0.32,-0.61 0.38,-0.58 0.44,-0.53 0.49,-0.49 0.53,-0.44 0.58,-0.38 0.61,-0.32 0.64,-0.26 0.66,-0.20 0.68,-0.13 0.69,-0.06 0.7,4.28 0.7,0.12 0.7,0.25 0.69,0.63 0.69,1.00 0.82,1.72 0.95,2.43 0.97,3.22 1.00,4.01 1.13,5.19 1.26,6.37 1.29,7.38 1.32,8.40 1.32,9.24 1.33,10.09 1.33,10.76 1.33,11.44 1.33,12.09 1.33,12.73 1.33,13.12 1.33,13.50 1.33,13.70 1.33,13.91 0.98,13.56 0.63,13.21 0.98,13.56 1.33,13.91 1.23,14.16 1.13,14.40 0.88,14.51 0.63,14.61 0.38,14.51 0.14,14.40 0.38,13.81 0.63,13.21 0.28,13.56 -0.06,13.91 -0.05,13.63 -0.04,13.34 -0.02,13.28 -0.00,13.21 0.02,13.15 0.05,13.09 0.09,13.04 0.14,12.99 0.19,12.94 0.24,12.90 0.30,12.87 0.36,12.83 0.43,12.81 0.50,12.79 0.56,12.79 0.63,12.78 0.70,12.79 0.77,12.79 0.83,12.81 0.90,12.83 0.96,12.87 1.02,12.90 1.07,12.94 1.13,12.99 1.17,13.04 1.21,13.09 1.25,13.15 1.28,13.21 1.30,13.28 1.32,13.34 1.33,13.41 1.33,13.48 1.33,13.55 1.32,13.62 1.30,13.68 1.28,13.75 1.25,13.81 1.21,13.87 1.17,13.92 1.13,13.98 1.07,14.02 1.02,14.06 0.96,14.10 0.90,14.13 0.83,14.15 0.77,14.17 0.70,14.17 0.63,14.18 0.56,14.17 0.50,14.17 0.43,14.15 0.36,14.13 0.30,14.10 0.24,14.06 0.19,14.02 0.14,13.98 0.09,13.92 0.05,13.87 0.02,13.81 -0.00,13.75 -0.02,13.68 -0.04,13.62 -0.05,13.55 -0.06,13.48 -0.05,13.41 -0.04,13.34 -0.02,13.28 -0.00,13.21 0.02,13.15 0.05,13.09 0.09,13.04 0.14,12.99 0.19,12.94 0.24,12.90 0.30,12.87 0.36,12.83 0.43,12.81 0.50,12.79 0.56,12.79 0.63,12.78 0.70,12.79 0.77,12.79 0.83,12.81 0.90,12.83 0.96,12.87 1.02,12.90 1.07,12.94 1.13,12.99 1.17,13.04 1.21,13.09 1.25,13.15 1.28,13.21 1.30,13.28 1.32,13.34 1.33,13.41 1.33,13.48 1.33,13.70 1.33,13.91 1.23,14.16 1.13,14.40 0.88,14.51 0.63,14.61 0.38,14.51 0.14,14.40 0.03,14.16 -0.06,13.91 -0.06,13.70 -0.06,13.50 -0.06,13.12 -0.06,12.73 -0.06,12.09 -0.06,11.44 -0.06,10.77 -0.06,10.09 -0.07,9.26 -0.07,8.43 -0.10,7.44 -0.12,6.46 -0.25,5.29 -0.39,4.11 -0.41,3.35 -0.44,2.58 -0.56,1.85 -0.69,1.13 -0.69,0.69 -0.7,0.25 -0.7,0.12 -0.7,-4.28 -0.7,-4.28 L -0.7,-4.28 Z"></path></g><g transform="translate(44.084780635767174 33.25410267673834) rotate(0 7.0080857381951205 5.574613655382478)" stroke="none"><path fill="#d3d3d3" d="M 4.28,-0.7 Q 4.28,-0.7 0.06,-0.69 0.13,-0.68 0.20,-0.66 0.26,-0.64 0.32,-0.61 0.38,-0.58 0.44,-0.53 0.49,-0.49 0.53,-0.44 0.58,-0.38 0.61,-0.32 0.64,-0.26 0.66,-0.20 0.68,-0.13 0.69,-0.06 0.7,8.57 0.69,0.06 0.68,0.13 0.66,0.20 0.64,0.26 0.61,0.32 0.58,0.38 0.53,0.44 0.49,0.49 0.44,0.53 0.38,0.58 0.32,0.61 0.26,0.64 0.20,0.66 0.13,0.68 0.06,0.69 -4.28,0.7 -0.34,0.62 -0.69,0.54 -0.82,0.00 -0.94,-0.53 -0.54,-0.85 -0.15,-1.17 0.20,-1.35 0.56,-1.53 1.32,-1.71 2.09,-1.88 2.52,-1.92 2.95,-1.95 3.43,-1.96 3.90,-1.97 4.63,-1.97 5.36,-1.97 6.02,-1.97 6.68,-1.97 7.60,-1.97 8.52,-1.97 9.43,-1.82 10.34,-1.67 11.10,-1.22 11.86,-0.77 12.30,-0.38 12.74,-0.00 13.11,0.49 13.48,0.99 13.82,1.63 14.17,2.27 14.36,2.78 14.56,3.29 14.75,3.73 14.94,4.17 14.83,5.06 14.71,5.95 14.38,6.44 14.05,6.93 13.60,7.41 13.14,7.90 12.77,8.27 12.39,8.65 11.66,9.12 10.92,9.59 10.40,9.94 9.88,10.28 9.39,10.61 8.90,10.94 8.15,11.39 7.40,11.85 6.96,12.08 6.51,12.32 5.89,12.50 5.27,12.68 4.73,12.86 4.19,13.03 3.40,13.06 2.61,13.10 2.21,13.11 1.80,13.12 1.59,13.12 1.38,13.12 1.14,13.11 0.90,13.11 0.83,13.09 0.77,13.07 0.71,13.03 0.65,13.00 0.59,12.96 0.54,12.91 0.50,12.86 0.45,12.81 0.42,12.75 0.39,12.69 0.37,12.62 0.35,12.56 0.34,12.49 0.34,12.42 0.34,12.35 0.35,12.28 0.37,12.22 0.39,12.15 0.42,12.09 0.45,12.03 0.50,11.98 0.54,11.92 0.59,11.88 0.65,11.84 0.71,11.80 0.77,11.77 0.83,11.75 0.90,11.73 0.97,11.73 1.03,11.72 1.10,11.72 1.17,11.73 1.24,11.75 1.30,11.77 1.36,11.80 1.42,11.84 1.48,11.88 1.53,11.92 1.57,11.98 1.62,12.03 1.65,12.09 1.68,12.15 1.70,12.22 1.72,12.28 1.73,12.35 1.74,12.42 1.73,12.49 1.72,12.55 1.70,12.62 1.68,12.69 1.65,12.75 1.62,12.81 1.57,12.86 1.53,12.91 1.48,12.96 1.42,13.00 1.36,13.03 1.30,13.06 1.24,13.08 1.17,13.10 1.10,13.11 1.04,13.12 0.97,13.11 0.90,13.11 0.83,13.09 0.77,13.07 0.71,13.03 0.65,13.00 0.59,12.96 0.54,12.91 0.50,12.86 0.45,12.81 0.42,12.75 0.39,12.69 0.37,12.62 0.35,12.56 0.34,12.49 0.34,12.42 0.34,12.35 0.35,12.28 0.37,12.22 0.39,12.15 0.42,12.09 0.45,12.03 0.50,11.98 0.54,11.92 0.59,11.88 0.65,11.84 0.71,11.80 0.77,11.77 0.83,11.75 0.90,11.73 0.97,11.73 1.03,11.72 1.20,11.72 1.37,11.72 1.58,11.72 1.78,11.72 2.18,11.71 2.57,11.70 3.26,11.68 3.94,11.65 4.40,11.50 4.86,11.35 5.42,11.19 5.98,11.03 6.34,10.83 6.70,10.63 7.42,10.19 8.14,9.75 8.63,9.43 9.11,9.11 9.63,8.77 10.16,8.42 10.84,7.99 11.51,7.56 11.82,7.24 12.13,6.92 12.55,6.48 12.97,6.05 13.19,5.74 13.41,5.44 13.48,4.91 13.55,4.38 13.41,4.11 13.27,3.84 13.08,3.35 12.90,2.85 12.60,2.30 12.30,1.74 12.00,1.34 11.71,0.94 11.37,0.65 11.03,0.36 10.45,0.00 9.86,-0.36 9.14,-0.46 8.41,-0.57 7.54,-0.57 6.68,-0.57 6.02,-0.57 5.36,-0.57 4.64,-0.57 3.91,-0.57 3.46,-0.56 3.02,-0.55 2.66,-0.53 2.30,-0.50 1.67,-0.36 1.04,-0.21 0.79,-0.08 0.53,0.04 0.43,0.03 0.33,0.02 0.26,-0.25 0.18,-0.54 0.09,-0.62 4.28,-0.7 4.28,-0.7 L 4.28,-0.7 Z"></path></g><g transform="translate(20.19357925555653 31.342806566321514) rotate(0 14.334720828126393 -9.397205876216205)" stroke="none"><path fill="#d3d3d3" d="M 0.7,4.28 Q 0.7,4.28 0.69,0.06 0.68,0.13 0.66,0.20 0.64,0.26 0.61,0.32 0.58,0.38 0.53,0.44 0.49,0.49 0.44,0.53 0.38,0.58 0.32,0.61 0.26,0.64 0.20,0.66 0.13,0.68 0.06,0.69 -8.57,0.7 -0.06,0.69 -0.13,0.68 -0.20,0.66 -0.26,0.64 -0.32,0.61 -0.38,0.58 -0.44,0.53 -0.49,0.49 -0.53,0.44 -0.58,0.38 -0.61,0.32 -0.64,0.26 -0.66,0.20 -0.68,0.13 -0.69,0.06 -0.7,-4.28 -0.7,-0.12 -0.7,-0.25 -0.7,-0.53 -0.7,-0.81 -0.69,-0.92 -0.68,-1.03 -0.78,-1.25 -0.89,-1.47 -1.04,-1.79 -1.20,-2.12 -1.37,-2.58 -1.53,-3.05 -1.69,-3.52 -1.85,-4.00 -2.02,-4.52 -2.19,-5.04 -2.23,-5.57 -2.27,-6.10 -2.28,-6.59 -2.28,-7.08 -2.28,-7.59 -2.28,-8.10 -2.14,-8.90 -2.00,-9.70 -1.71,-10.40 -1.41,-11.11 -1.09,-11.77 -0.76,-12.44 -0.43,-12.97 -0.11,-13.50 0.20,-13.97 0.51,-14.45 0.69,-14.78 0.87,-15.12 1.06,-15.48 1.25,-15.84 1.54,-16.17 1.83,-16.49 2.00,-16.79 2.17,-17.09 2.48,-17.56 2.79,-18.03 3.00,-18.27 3.21,-18.52 3.56,-18.87 3.91,-19.22 4.39,-19.43 4.87,-19.64 5.34,-19.93 5.82,-20.22 6.34,-20.43 6.86,-20.64 7.48,-20.80 8.10,-20.97 8.59,-21.13 9.08,-21.29 9.58,-21.45 10.07,-21.61 10.72,-21.78 11.37,-21.95 12.04,-21.99 12.72,-22.02 13.36,-22.03 14.01,-22.03 14.52,-22.04 15.03,-22.04 15.66,-22.04 16.30,-22.04 17.34,-21.91 18.39,-21.77 19.24,-21.62 20.09,-21.46 20.92,-21.30 21.74,-21.14 22.32,-20.97 22.91,-20.80 23.55,-20.50 24.20,-20.20 24.58,-20.02 24.96,-19.83 25.31,-19.65 25.66,-19.48 26.15,-19.17 26.64,-18.85 27.01,-18.52 27.38,-18.18 27.76,-17.79 28.14,-17.41 28.37,-16.75 28.60,-16.09 28.77,-15.46 28.94,-14.84 29.09,-14.36 29.24,-13.88 29.53,-13.25 29.82,-12.63 30.02,-11.70 30.21,-10.77 30.38,-9.96 30.54,-9.15 30.71,-8.45 30.87,-7.75 30.91,-6.94 30.94,-6.13 30.95,-5.33 30.95,-4.54 30.96,-3.87 30.96,-3.20 30.96,-2.65 30.95,-2.10 30.82,-1.30 30.68,-0.50 30.53,-0.11 30.38,0.27 30.35,0.59 30.32,0.92 30.19,1.37 30.05,1.82 30.03,2.00 30.01,2.17 30.01,2.32 30.00,2.48 29.90,2.72 29.79,2.96 29.54,3.06 29.30,3.16 29.05,3.06 28.81,2.95 28.71,2.71 28.60,2.47 28.61,2.30 28.61,2.14 28.63,2.08 28.65,2.01 28.68,1.95 28.72,1.89 28.76,1.84 28.80,1.78 28.85,1.74 28.91,1.69 28.97,1.66 29.03,1.63 29.09,1.61 29.16,1.59 29.23,1.58 29.29,1.57 29.36,1.58 29.43,1.58 29.50,1.60 29.56,1.62 29.62,1.65 29.68,1.69 29.74,1.73 29.79,1.77 29.84,1.82 29.88,1.88 29.91,1.94 29.95,2.00 29.97,2.06 29.99,2.13 29.99,2.20 30.00,2.26 30.00,2.33 29.99,2.40 29.97,2.47 29.95,2.53 29.92,2.59 29.89,2.65 29.85,2.71 29.80,2.76 29.75,2.80 29.70,2.85 29.64,2.88 29.58,2.92 29.51,2.94 29.45,2.96 29.38,2.96 29.31,2.97 29.24,2.97 29.17,2.96 29.11,2.94 29.04,2.92 28.98,2.89 28.92,2.86 28.87,2.81 28.81,2.77 28.77,2.72 28.72,2.67 28.69,2.61 28.66,2.55 28.64,2.48 28.62,2.42 28.61,2.35 28.60,2.28 28.61,2.21 28.61,2.14 28.63,2.08 28.65,2.01 28.68,1.95 28.72,1.89 28.76,1.84 28.80,1.78 28.85,1.74 28.91,1.69 28.97,1.66 29.03,1.63 29.09,1.61 29.16,1.59 29.23,1.58 29.29,1.57 29.36,1.58 29.43,1.58 29.50,1.60 29.56,1.62 29.62,1.65 29.68,1.69 29.74,1.73 29.79,1.77 29.84,1.82 29.88,1.88 29.91,1.94 29.95,2.00 29.97,2.06 29.99,2.13 29.99,2.20 30.00,2.26 30.00,2.36 30.00,2.45 29.66,2.10 29.31,1.76 29.66,2.12 30.00,2.48 29.90,2.72 29.79,2.96 29.54,3.06 29.30,3.16 29.05,3.06 28.81,2.95 28.71,2.71 28.60,2.47 28.96,2.11 29.31,1.76 28.96,2.10 28.60,2.44 28.61,2.25 28.62,2.06 28.65,1.80 28.68,1.54 28.82,1.09 28.95,0.65 28.98,0.30 29.01,-0.04 29.17,-0.45 29.33,-0.87 29.44,-1.55 29.56,-2.22 29.56,-2.71 29.56,-3.20 29.56,-3.86 29.55,-4.53 29.55,-5.31 29.54,-6.10 29.51,-6.83 29.48,-7.56 29.33,-8.21 29.17,-8.85 29.01,-9.67 28.84,-10.49 28.67,-11.34 28.49,-12.18 28.21,-12.78 27.93,-13.37 27.76,-13.91 27.59,-14.45 27.43,-15.07 27.26,-15.69 27.11,-16.18 26.95,-16.67 26.69,-16.91 26.42,-17.16 26.10,-17.45 25.78,-17.74 25.38,-18.00 24.97,-18.26 24.66,-18.42 24.34,-18.57 23.97,-18.76 23.59,-18.94 23.00,-19.21 22.41,-19.49 21.91,-19.63 21.41,-19.78 20.62,-19.94 19.83,-20.09 19.00,-20.24 18.18,-20.39 17.19,-20.52 16.21,-20.64 15.62,-20.64 15.03,-20.64 14.52,-20.64 14.02,-20.63 13.39,-20.63 12.76,-20.62 12.17,-20.59 11.59,-20.57 11.02,-20.42 10.46,-20.27 9.99,-20.11 9.52,-19.95 9.00,-19.79 8.49,-19.63 7.90,-19.47 7.30,-19.31 6.87,-19.14 6.44,-18.97 5.98,-18.68 5.51,-18.39 5.11,-18.23 4.70,-18.06 4.47,-17.82 4.24,-17.57 4.08,-17.38 3.91,-17.19 3.64,-16.77 3.37,-16.35 3.17,-16.01 2.97,-15.67 2.68,-15.36 2.40,-15.04 2.26,-14.75 2.11,-14.47 1.91,-14.10 1.71,-13.73 1.39,-13.23 1.06,-12.74 0.76,-12.25 0.45,-11.76 0.15,-11.14 -0.14,-10.53 -0.40,-9.92 -0.66,-9.31 -0.78,-8.64 -0.89,-7.98 -0.89,-7.53 -0.88,-7.09 -0.88,-6.62 -0.87,-6.16 -0.85,-5.73 -0.82,-5.31 -0.67,-4.87 -0.53,-4.44 -0.37,-3.97 -0.21,-3.51 -0.06,-3.08 0.08,-2.66 0.23,-2.36 0.38,-2.05 0.53,-1.69 0.68,-1.32 0.69,-1.07 0.7,-0.81 0.7,-0.53 0.7,-0.25 0.7,-0.12 0.7,4.28 0.7,4.28 L 0.7,4.28 Z"></path></g><g transform="translate(20.795836623682703 30.70570786284921) rotate(0 13.219798097049903 -7.96373379340352)" stroke="none"><path fill="#d3d3d3" d="M 0.7,4.28 Q 0.7,4.28 0.69,0.06 0.68,0.13 0.66,0.20 0.64,0.26 0.61,0.32 0.58,0.38 0.53,0.44 0.49,0.49 0.44,0.53 0.38,0.58 0.32,0.61 0.26,0.64 0.20,0.66 0.13,0.68 0.06,0.69 -8.57,0.7 -0.06,0.69 -0.13,0.68 -0.20,0.66 -0.26,0.64 -0.32,0.61 -0.38,0.58 -0.44,0.53 -0.49,0.49 -0.53,0.44 -0.58,0.38 -0.61,0.32 -0.64,0.26 -0.66,0.20 -0.68,0.13 -0.69,0.06 -0.7,-4.28 -0.7,-0.12 -0.7,-0.25 -0.7,-0.40 -0.7,-0.56 -0.62,-0.50 -0.55,-0.44 -0.65,-0.45 -0.76,-0.45 -0.88,-0.79 -1.00,-1.13 -1.00,-1.31 -1.01,-1.50 -1.01,-1.66 -1.01,-1.82 -1.01,-2.11 -1.01,-2.40 -1.01,-2.58 -1.01,-2.77 -1.01,-3.19 -1.01,-3.61 -1.01,-4.07 -1.01,-4.54 -1.01,-5.02 -1.01,-5.49 -1.01,-5.84 -1.01,-6.19 -1.01,-6.52 -1.01,-6.84 -1.01,-7.16 -1.01,-7.48 -1.01,-7.67 -1.01,-7.86 -1.01,-8.16 -1.01,-8.45 -1.01,-8.64 -1.01,-8.82 -1.01,-9.18 -1.00,-9.54 -0.83,-9.96 -0.66,-10.39 -0.50,-10.59 -0.34,-10.80 -0.18,-11.10 -0.01,-11.39 0.17,-11.62 0.36,-11.84 0.59,-12.06 0.82,-12.28 0.87,-12.57 0.92,-12.86 1.08,-13.09 1.24,-13.33 1.41,-13.64 1.57,-13.94 1.70,-14.08 1.83,-14.22 1.86,-14.38 1.90,-14.55 2.12,-14.83 2.35,-15.11 2.69,-15.30 3.03,-15.50 3.35,-15.67 3.66,-15.83 4.03,-16.01 4.40,-16.19 4.55,-16.21 4.71,-16.23 4.87,-16.36 5.04,-16.49 5.31,-16.55 5.58,-16.61 5.83,-16.61 6.08,-16.61 6.32,-16.71 6.56,-16.82 6.93,-16.99 7.29,-17.16 7.68,-17.20 8.07,-17.24 8.28,-17.25 8.49,-17.26 8.66,-17.26 8.83,-17.26 8.99,-17.26 9.15,-17.26 9.34,-17.24 9.52,-17.23 9.69,-17.35 9.87,-17.48 10.39,-17.52 10.90,-17.56 11.13,-17.57 11.35,-17.58 11.65,-17.58 11.95,-17.58 12.14,-17.58 12.32,-17.58 12.57,-17.57 12.81,-17.57 13.24,-17.70 13.67,-17.82 14.06,-17.85 14.45,-17.88 14.68,-17.87 14.92,-17.86 15.08,-17.98 15.25,-18.10 15.51,-18.15 15.77,-18.20 15.96,-18.21 16.15,-18.21 16.57,-18.21 16.99,-18.21 17.33,-18.21 17.66,-18.22 17.99,-18.22 18.31,-18.22 18.63,-18.22 18.95,-18.22 19.14,-18.22 19.33,-18.22 19.61,-18.20 19.89,-18.18 20.07,-18.04 20.24,-17.91 20.48,-17.90 20.73,-17.89 21.05,-17.75 21.37,-17.62 21.60,-17.58 21.84,-17.53 22.10,-17.34 22.35,-17.15 22.53,-16.99 22.70,-16.82 22.83,-16.69 22.95,-16.56 23.23,-16.41 23.51,-16.26 23.63,-16.13 23.75,-16.01 24.03,-15.98 24.31,-15.95 24.66,-15.69 25.01,-15.42 25.07,-15.23 25.13,-15.04 25.21,-14.96 25.29,-14.88 25.47,-14.69 25.65,-14.51 25.81,-14.21 25.97,-13.92 26.13,-13.73 26.29,-13.55 26.50,-13.16 26.71,-12.77 26.74,-12.44 26.78,-12.11 26.91,-11.79 27.05,-11.47 27.08,-11.09 27.12,-10.70 27.13,-10.24 27.13,-9.78 27.13,-9.50 27.12,-9.22 27.25,-8.91 27.37,-8.60 27.41,-8.22 27.44,-7.83 27.45,-7.50 27.45,-7.17 27.45,-6.85 27.45,-6.53 27.45,-6.21 27.45,-5.89 27.45,-5.70 27.45,-5.51 27.45,-5.21 27.45,-4.92 27.45,-4.73 27.45,-4.55 27.45,-4.26 27.45,-3.96 27.45,-3.65 27.45,-3.34 27.45,-3.02 27.45,-2.70 27.45,-2.51 27.45,-2.32 27.45,-2.03 27.45,-1.73 27.45,-1.42 27.45,-1.11 27.45,-0.79 27.45,-0.47 27.45,-0.09 27.44,0.29 27.27,0.72 27.10,1.14 26.97,1.30 26.83,1.46 26.82,1.55 26.82,1.63 26.69,1.84 26.56,2.06 26.33,2.13 26.09,2.20 25.86,2.10 25.64,2.00 25.54,1.78 25.43,1.55 25.43,1.39 25.43,1.22 25.44,1.16 25.46,1.09 25.48,1.03 25.51,0.97 25.55,0.91 25.59,0.85 25.64,0.81 25.69,0.76 25.75,0.72 25.81,0.69 25.87,0.66 25.94,0.64 26.01,0.63 26.07,0.62 26.14,0.62 26.21,0.62 26.28,0.64 26.34,0.65 26.41,0.68 26.47,0.71 26.53,0.75 26.58,0.79 26.63,0.84 26.67,0.89 26.71,0.95 26.75,1.01 26.77,1.07 26.80,1.14 26.81,1.20 26.82,1.27 26.82,1.34 26.81,1.41 26.80,1.47 26.78,1.54 26.75,1.60 26.73,1.67 26.69,1.72 26.65,1.78 26.59,1.83 26.54,1.87 26.49,1.91 26.43,1.94 26.36,1.97 26.30,1.99 26.23,2.00 26.16,2.01 26.10,2.01 26.03,2.01 25.96,1.99 25.89,1.98 25.83,1.95 25.77,1.92 25.71,1.88 25.66,1.84 25.61,1.79 25.56,1.74 25.53,1.68 25.49,1.63 25.47,1.56 25.44,1.50 25.43,1.43 25.42,1.36 25.42,1.29 25.43,1.22 25.44,1.16 25.46,1.09 25.48,1.03 25.51,0.97 25.55,0.91 25.59,0.85 25.64,0.81 25.69,0.76 25.75,0.72 25.81,0.69 25.87,0.66 25.94,0.64 26.01,0.63 26.07,0.62 26.14,0.62 26.21,0.62 26.28,0.64 26.34,0.65 26.41,0.68 26.47,0.71 26.53,0.75 26.58,0.79 26.63,0.84 26.67,0.89 26.71,0.95 26.75,1.01 26.77,1.07 26.80,1.14 26.81,1.20 26.82,1.27 26.82,1.37 26.83,1.46 26.50,1.13 26.17,0.81 26.50,1.22 26.82,1.63 26.69,1.84 26.56,2.06 26.33,2.13 26.09,2.20 25.86,2.10 25.64,2.00 25.54,1.78 25.43,1.55 25.80,1.18 26.17,0.81 25.81,1.09 25.44,1.38 25.50,1.13 25.56,0.88 25.72,0.66 25.89,0.44 25.98,0.23 26.07,0.02 26.06,-0.22 26.05,-0.47 26.05,-0.79 26.05,-1.11 26.05,-1.42 26.05,-1.73 26.05,-2.03 26.05,-2.32 26.05,-2.51 26.05,-2.70 26.05,-3.02 26.05,-3.34 26.05,-3.65 26.05,-3.96 26.05,-4.26 26.05,-4.55 26.05,-4.73 26.05,-4.92 26.05,-5.21 26.05,-5.51 26.05,-5.70 26.05,-5.89 26.05,-6.21 26.05,-6.52 26.05,-6.84 26.05,-7.16 26.05,-7.46 26.04,-7.77 26.02,-8.02 26.01,-8.28 25.88,-8.62 25.75,-8.95 25.74,-9.36 25.73,-9.77 25.73,-10.20 25.72,-10.63 25.71,-10.88 25.69,-11.14 25.55,-11.45 25.42,-11.76 25.39,-12.06 25.37,-12.36 25.26,-12.55 25.14,-12.75 24.98,-12.93 24.83,-13.12 24.67,-13.40 24.52,-13.67 24.39,-13.81 24.26,-13.94 24.07,-14.17 23.88,-14.41 23.87,-14.53 23.85,-14.64 23.83,-14.65 23.81,-14.65 23.50,-14.69 23.20,-14.72 22.95,-14.92 22.71,-15.11 22.41,-15.28 22.11,-15.44 21.92,-15.63 21.72,-15.82 21.58,-15.96 21.43,-16.10 21.36,-16.17 21.28,-16.25 21.14,-16.26 20.99,-16.27 20.69,-16.40 20.39,-16.53 20.06,-16.57 19.72,-16.61 19.58,-16.73 19.43,-16.85 19.38,-16.83 19.33,-16.82 19.14,-16.82 18.95,-16.82 18.63,-16.82 18.31,-16.82 17.99,-16.82 17.67,-16.82 17.33,-16.81 16.99,-16.81 16.58,-16.81 16.17,-16.81 16.04,-16.81 15.90,-16.81 15.83,-16.80 15.76,-16.80 15.55,-16.66 15.33,-16.53 14.92,-16.51 14.51,-16.48 14.21,-16.46 13.91,-16.44 13.46,-16.31 13.01,-16.19 12.67,-16.18 12.33,-16.18 12.14,-16.18 11.95,-16.18 11.66,-16.18 11.37,-16.18 11.17,-16.17 10.96,-16.17 10.64,-16.16 10.32,-16.15 10.13,-16.02 9.93,-15.89 9.54,-15.88 9.15,-15.86 8.99,-15.86 8.83,-15.86 8.67,-15.86 8.51,-15.86 8.34,-15.85 8.16,-15.85 7.92,-15.83 7.67,-15.81 7.40,-15.67 7.13,-15.54 6.75,-15.39 6.36,-15.23 6.04,-15.22 5.71,-15.21 5.66,-15.21 5.61,-15.22 5.45,-15.08 5.28,-14.95 5.06,-14.90 4.83,-14.86 4.56,-14.72 4.30,-14.58 3.99,-14.43 3.69,-14.27 3.47,-14.15 3.24,-14.03 3.20,-13.99 3.16,-13.95 3.13,-13.78 3.10,-13.62 2.91,-13.38 2.73,-13.15 2.58,-12.87 2.43,-12.59 2.32,-12.45 2.20,-12.30 2.13,-11.97 2.07,-11.63 1.73,-11.26 1.39,-10.90 1.26,-10.75 1.13,-10.60 0.98,-10.31 0.82,-10.02 0.68,-9.85 0.53,-9.68 0.45,-9.47 0.36,-9.27 0.37,-9.05 0.38,-8.82 0.38,-8.64 0.38,-8.45 0.38,-8.16 0.38,-7.86 0.38,-7.67 0.38,-7.48 0.38,-7.16 0.38,-6.84 0.38,-6.52 0.38,-6.19 0.38,-5.84 0.38,-5.49 0.38,-5.02 0.38,-4.54 0.38,-4.07 0.38,-3.61 0.38,-3.19 0.38,-2.77 0.38,-2.59 0.38,-2.40 0.38,-2.12 0.38,-1.83 0.38,-1.68 0.38,-1.52 0.38,-1.40 0.38,-1.28 0.32,-1.35 0.25,-1.42 0.40,-1.36 0.55,-1.30 0.62,-0.93 0.7,-0.56 0.7,-0.40 0.7,-0.25 0.7,-0.12 0.7,4.28 0.7,4.28 L 0.7,4.28 Z"></path></g><g transform="translate(49.146728928199366 42.49203387708647) rotate(0 -0.3185493517361522 0)" stroke="none"><path fill="#d3d3d3" d="M 4.28,-0.7 Q 4.28,-0.7 0.06,-0.69 0.13,-0.68 0.20,-0.66 0.26,-0.64 0.32,-0.61 0.38,-0.58 0.44,-0.53 0.49,-0.49 0.53,-0.44 0.58,-0.38 0.61,-0.32 0.64,-0.26 0.66,-0.20 0.68,-0.13 0.69,-0.06 0.7,8.57 0.69,0.06 0.68,0.13 0.66,0.20 0.64,0.26 0.61,0.32 0.58,0.38 0.53,0.44 0.49,0.49 0.44,0.53 0.38,0.58 0.32,0.61 0.26,0.64 0.20,0.66 0.13,0.68 0.06,0.69 -4.28,0.7 -0.12,0.7 -0.25,0.7 -0.40,0.7 -0.56,0.7 -0.21,0.35 0.13,0 -0.21,0.35 -0.56,0.7 -0.80,0.59 -1.05,0.49 -1.15,0.24 -1.26,0 -1.15,-0.24 -1.05,-0.49 -0.80,-0.59 -0.56,-0.7 -0.21,-0.35 0.13,0 -0.21,-0.35 -0.56,-0.7 -0.26,-0.69 0.02,-0.68 0.09,-0.66 0.15,-0.64 0.21,-0.61 0.27,-0.58 0.32,-0.53 0.38,-0.49 0.42,-0.44 0.46,-0.38 0.50,-0.32 0.53,-0.26 0.55,-0.20 0.57,-0.13 0.58,-0.06 0.58,-4.18 0.58,0.06 0.57,0.13 0.55,0.20 0.53,0.26 0.50,0.32 0.46,0.38 0.42,0.44 0.38,0.49 0.32,0.53 0.27,0.58 0.21,0.61 0.15,0.64 0.09,0.66 0.02,0.68 -0.04,0.69 -0.11,0.7 -0.18,0.69 -0.24,0.68 -0.31,0.66 -0.38,0.64 -0.44,0.61 -0.50,0.58 -0.55,0.53 -0.60,0.49 -0.65,0.44 -0.69,0.38 -0.72,0.32 -0.75,0.26 -0.77,0.20 -0.79,0.13 -0.80,0.06 -0.81,1.77 -0.80,-0.06 -0.79,-0.13 -0.77,-0.20 -0.75,-0.26 -0.72,-0.32 -0.69,-0.38 -0.65,-0.44 -0.60,-0.49 -0.55,-0.53 -0.50,-0.58 -0.44,-0.61 -0.38,-0.64 -0.31,-0.66 -0.24,-0.68 -0.18,-0.69 -0.11,-0.7 -0.04,-0.69 0.02,-0.68 0.09,-0.66 0.15,-0.64 0.21,-0.61 0.27,-0.58 0.32,-0.53 0.38,-0.49 0.42,-0.44 0.46,-0.38 0.50,-0.32 0.53,-0.26 0.55,-0.20 0.57,-0.13 0.58,-0.06 0.58,0 0.58,0.06 0.57,0.13 0.55,0.20 0.53,0.26 0.50,0.32 0.46,0.38 0.42,0.44 0.38,0.49 0.32,0.53 0.27,0.58 0.21,0.61 0.15,0.64 0.09,0.66 0.02,0.68 -0.04,0.69 -0.11,0.7 -0.33,0.7 -0.56,0.7 -0.80,0.59 -1.05,0.49 -1.15,0.24 -1.26,0 -1.15,-0.24 -1.05,-0.49 -0.80,-0.59 -0.56,-0.7 -0.40,-0.7 -0.25,-0.7 -0.12,-0.7 4.28,-0.7 4.28,-0.7 L 4.28,-0.7 Z"></path></g><g transform="translate(51.058025038616165 41.21783647014189) rotate(0 0.00004999999998744897 0.00005000000000165983)" stroke="none"><path fill="#d3d3d3" d="M -0.49,0.49 Q -0.49,0.49 -0.53,0.44 -0.58,0.38 -0.61,0.32 -0.64,0.26 -0.66,0.20 -0.68,0.13 -0.69,0.06 -0.7,-5.35 -0.69,-0.06 -0.68,-0.13 -0.66,-0.20 -0.64,-0.26 -0.61,-0.32 -0.58,-0.38 -0.53,-0.44 -0.49,-0.49 -0.44,-0.53 -0.38,-0.58 -0.32,-0.61 -0.26,-0.64 -0.20,-0.66 -0.13,-0.68 -0.06,-0.69 1.73,-0.7 0.06,-0.69 0.13,-0.68 0.20,-0.66 0.26,-0.64 0.32,-0.61 0.38,-0.58 0.44,-0.53 0.49,-0.49 0.53,-0.44 0.58,-0.38 0.61,-0.32 0.64,-0.26 0.66,-0.20 0.68,-0.13 0.69,-0.06 0.70,0.00 0.69,0.06 0.68,0.13 0.66,0.20 0.64,0.26 0.61,0.32 0.58,0.38 0.53,0.44 0.49,0.49 0.44,0.53 0.38,0.58 0.32,0.61 0.26,0.64 0.20,0.66 0.13,0.68 0.06,0.69 0.00,0.70 -0.06,0.69 -0.13,0.68 -0.20,0.66 -0.26,0.64 -0.32,0.61 -0.38,0.58 -0.44,0.53 -0.49,0.49 -0.49,0.49 L -0.49,0.49 Z"></path></g><g transform="translate(57.74756142507522 29.431510455904657) rotate(0 2.5483948138891037 3.5040428690975602)" stroke="none"><path fill="#d3d3d3" d="M -4.28,0.7 Q -4.28,0.7 -0.06,0.69 -0.13,0.68 -0.20,0.66 -0.26,0.64 -0.32,0.61 -0.38,0.58 -0.44,0.53 -0.49,0.49 -0.53,0.44 -0.58,0.38 -0.61,0.32 -0.64,0.26 -0.66,0.20 -0.68,0.13 -0.69,0.06 -0.7,-8.57 -0.69,-0.06 -0.68,-0.13 -0.66,-0.20 -0.64,-0.26 -0.61,-0.32 -0.58,-0.38 -0.53,-0.44 -0.49,-0.49 -0.44,-0.53 -0.38,-0.58 -0.32,-0.61 -0.26,-0.64 -0.20,-0.66 -0.13,-0.68 -0.06,-0.69 4.28,-0.7 0.20,-0.69 0.40,-0.68 0.69,-0.55 0.98,-0.42 1.39,-0.40 1.80,-0.38 2.38,-0.21 2.96,-0.04 3.52,0.43 4.09,0.90 4.49,1.45 4.90,1.99 5.12,2.66 5.35,3.33 5.53,4.21 5.71,5.09 5.46,5.74 5.21,6.38 4.99,6.81 4.78,7.24 4.74,7.29 4.69,7.34 4.64,7.38 4.58,7.42 4.52,7.45 4.46,7.48 4.39,7.50 4.32,7.51 4.26,7.52 4.19,7.52 4.12,7.51 4.05,7.50 3.99,7.48 3.92,7.45 3.86,7.42 3.80,7.38 3.75,7.34 3.70,7.29 3.66,7.24 3.62,7.18 3.59,7.12 3.56,7.06 3.55,6.99 3.53,6.92 3.53,6.86 3.52,6.79 3.53,6.72 3.54,6.65 3.57,6.59 3.59,6.52 3.63,6.46 3.66,6.40 3.71,6.35 3.75,6.30 3.81,6.26 3.86,6.22 3.93,6.19 3.99,6.16 4.05,6.15 4.12,6.13 4.19,6.13 4.26,6.12 4.33,6.13 4.39,6.14 4.46,6.17 4.52,6.19 4.58,6.23 4.64,6.26 4.69,6.31 4.74,6.35 4.78,6.41 4.82,6.46 4.85,6.53 4.88,6.59 4.90,6.65 4.91,6.72 4.92,6.79 4.92,6.86 4.91,6.93 4.90,6.99 4.88,7.06 4.85,7.12 4.82,7.18 4.78,7.24 4.74,7.29 4.69,7.34 4.64,7.38 4.58,7.42 4.52,7.45 4.46,7.48 4.39,7.50 4.32,7.51 4.26,7.52 4.19,7.52 4.12,7.51 4.05,7.50 3.99,7.48 3.92,7.45 3.86,7.42 3.80,7.38 3.75,7.34 3.70,7.29 3.66,7.24 3.62,7.18 3.59,7.12 3.56,7.06 3.55,6.99 3.53,6.92 3.53,6.86 3.52,6.79 3.53,6.72 3.54,6.65 3.57,6.59 3.59,6.52 3.76,6.17 3.93,5.81 4.12,5.39 4.31,4.97 4.16,4.34 4.00,3.70 3.83,3.17 3.66,2.64 3.36,2.25 3.07,1.86 2.68,1.52 2.30,1.18 1.93,1.09 1.57,0.99 1.11,0.96 0.64,0.93 0.37,0.80 0.10,0.68 0.05,0.69 -4.28,0.7 -4.28,0.7 L -4.28,0.7 Z"></path></g><g transform="translate(60.29595623896432 27.838763697223925) rotate(0 2.7076694897572224 3.8225922208337124)" stroke="none"><path fill="#d3d3d3" d="M -0.7,-4.28 Q -0.7,-4.28 -0.69,-0.06 -0.68,-0.13 -0.66,-0.20 -0.64,-0.26 -0.61,-0.32 -0.58,-0.38 -0.53,-0.44 -0.49,-0.49 -0.44,-0.53 -0.38,-0.58 -0.32,-0.61 -0.26,-0.64 -0.20,-0.66 -0.13,-0.68 -0.06,-0.69 8.57,-0.7 0.06,-0.69 0.13,-0.68 0.20,-0.66 0.26,-0.64 0.32,-0.61 0.38,-0.58 0.44,-0.53 0.49,-0.49 0.53,-0.44 0.58,-0.38 0.61,-0.32 0.64,-0.26 0.66,-0.20 0.68,-0.13 0.69,-0.06 0.7,4.28 0.65,-0.04 0.60,-0.09 0.71,-0.08 0.81,-0.07 1.24,0.08 1.68,0.24 2.18,0.55 2.68,0.85 3.21,1.20 3.73,1.55 4.25,2.17 4.77,2.79 5.15,3.33 5.53,3.87 5.76,4.44 5.99,5.01 6.04,5.59 6.09,6.18 5.94,6.78 5.79,7.37 5.57,7.70 5.34,8.03 5.29,8.07 5.23,8.11 5.17,8.15 5.11,8.18 5.05,8.20 4.98,8.22 4.91,8.22 4.84,8.23 4.78,8.22 4.71,8.21 4.64,8.19 4.58,8.17 4.52,8.14 4.46,8.11 4.40,8.06 4.35,8.02 4.31,7.97 4.26,7.91 4.23,7.85 4.20,7.79 4.18,7.73 4.16,7.66 4.16,7.59 4.15,7.52 4.16,7.46 4.16,7.39 4.18,7.32 4.20,7.26 4.24,7.20 4.27,7.14 4.31,7.08 4.36,7.03 4.41,6.99 4.46,6.94 4.52,6.91 4.59,6.88 4.65,6.86 4.72,6.84 4.79,6.83 4.85,6.83 4.92,6.84 4.99,6.84 5.06,6.86 5.12,6.88 5.18,6.92 5.24,6.95 5.29,6.99 5.35,7.04 5.39,7.09 5.43,7.14 5.47,7.20 5.50,7.27 5.52,7.33 5.54,7.40 5.54,7.47 5.55,7.53 5.54,7.60 5.53,7.67 5.51,7.74 5.49,7.80 5.46,7.86 5.43,7.92 5.38,7.97 5.34,8.03 5.29,8.07 5.23,8.11 5.17,8.15 5.11,8.18 5.05,8.20 4.98,8.22 4.91,8.22 4.84,8.23 4.78,8.22 4.71,8.21 4.64,8.19 4.58,8.17 4.52,8.14 4.46,8.11 4.40,8.06 4.35,8.02 4.31,7.97 4.26,7.91 4.23,7.85 4.20,7.79 4.18,7.73 4.16,7.66 4.16,7.59 4.15,7.52 4.16,7.46 4.16,7.39 4.18,7.32 4.20,7.26 4.24,7.20 4.27,7.14 4.39,6.97 4.51,6.80 4.60,6.43 4.69,6.07 4.66,5.70 4.63,5.33 4.47,4.94 4.30,4.54 3.98,4.09 3.66,3.64 3.23,3.12 2.80,2.59 2.36,2.31 1.93,2.04 1.50,1.77 1.07,1.50 0.64,1.34 0.20,1.19 -0.20,0.89 -0.60,0.59 -0.65,0.29 -0.7,-4.28 -0.7,-4.28 L -0.7,-4.28 Z"></path></g></svg>